<svg width="57" height="93" viewBox="0 0 57 93" xmlns="http://www.w3.org/2000/svg" xmlns:xlink="http://www.w3.org/1999/xlink"><title>book2</title><defs><path id="a" d="M7 7h11v28H7z"/><mask id="f" x="0" y="0" width="11" height="28" fill="#fff"><use xlink:href="#a"/></mask><path id="b" d="M16 5h10v30H16z"/><mask id="g" x="0" y="0" width="10" height="30" fill="#fff"><use xlink:href="#b"/></mask><path id="c" d="M24 0h16v35H24z"/><mask id="h" x="0" y="0" width="16" height="35" fill="#fff"><use xlink:href="#c"/></mask><path id="d" d="M38 10h12v25H38z"/><mask id="i" x="0" y="0" width="12" height="25" fill="#fff"><use xlink:href="#d"/></mask><path id="e" d="M0 0h57v60H0z"/><mask id="j" x="0" y="0" width="57" height="60" fill="#fff"><use xlink:href="#e"/></mask></defs><g stroke="#D1D3D6" fill="none" fill-rule="evenodd"><use mask="url(#f)" stroke-width="4" fill="#FFF" xlink:href="#a"/><path d="M12.5 14h1M12.5 18h1M12.5 22h1" stroke-width="2" stroke-linecap="square"/><use mask="url(#g)" stroke-width="4" fill="#FFF" xlink:href="#b"/><use mask="url(#h)" stroke-width="4" fill="#FFF" xlink:href="#c"/><use mask="url(#i)" stroke-width="4" fill="#FFF" xlink:href="#d"/><path d="M32.5 18h2M32.5 22h2M32.5 10h2M32.5 14h2M44.5 24h2M44.5 28h2M17.5 19h7M17.5 25h7" stroke-width="2" stroke-linecap="square"/><g transform="translate(0 33)"><use mask="url(#j)" stroke-width="4" fill="#FFF" xlink:href="#e"/><path d="M2.5 30h53" stroke-width="2" stroke-linecap="square"/><circle stroke-width="2" cx="28" cy="15" r="5"/><circle stroke-width="2" cx="28" cy="44" r="5"/></g></g></svg>