<svg width="40" height="66" viewBox="0 0 40 66" xmlns="http://www.w3.org/2000/svg" xmlns:xlink="http://www.w3.org/1999/xlink"><title>book1</title><defs><path id="a" d="M0 23h12v43H0z"/><mask id="e" x="0" y="0" width="12" height="43" fill="#fff"><use xlink:href="#a"/></mask><path id="b" d="M9 0h10v66H9z"/><mask id="f" x="0" y="0" width="10" height="66" fill="#fff"><use xlink:href="#b"/></mask><path id="c" d="M16 19h15v47H16z"/><mask id="g" x="0" y="0" width="15" height="47" fill="#fff"><use xlink:href="#c"/></mask><path id="d" d="M28 12h12v54H28z"/><mask id="h" x="0" y="0" width="12" height="54" fill="#fff"><use xlink:href="#d"/></mask></defs><g stroke="#1A2530" fill="none" fill-rule="evenodd"><use mask="url(#e)" stroke-width="4" fill="#FFF" xlink:href="#a"/><path d="M5.5 32h1M5.5 36h1M5.5 40h1M5.5 44h1" stroke-width="2" stroke-linecap="square"/><use mask="url(#f)" stroke-width="4" fill="#FFF" xlink:href="#b"/><use mask="url(#g)" stroke-width="4" fill="#FFF" xlink:href="#c"/><path d="M23 25.5v14" stroke-width="2" stroke-linecap="square"/><use mask="url(#h)" stroke-width="4" fill="#FFF" xlink:href="#d"/><path d="M22.5 46h2M22.5 50h2M34.5 20h2M34.5 24h2M10.5 9h7M10.5 15h7" stroke-width="2" stroke-linecap="square"/></g></svg>