<svg width="124" height="56" viewBox="0 0 124 56" xmlns="http://www.w3.org/2000/svg" xmlns:xlink="http://www.w3.org/1999/xlink"><title>book3</title><defs><path d="M1.814 50.934C3.02 48.762 6.024 47 8.5 47h6c2.485 0 5.476 1.757 6.686 3.934l.628 1.132c1.207 2.172.16 3.934-2.312 3.934H3.498c-2.484 0-3.522-1.757-2.312-3.934l.628-1.132z" id="a"/><mask id="f" x="0" y="0" width="21.636" height="9" fill="#fff"><use xlink:href="#a"/></mask><path id="b" d="M0 11h12v43H0z"/><mask id="g" x="0" y="0" width="12" height="43" fill="#fff"><use xlink:href="#b"/></mask><path id="c" d="M9 7h10v47H9z"/><mask id="h" x="0" y="0" width="10" height="47" fill="#fff"><use xlink:href="#c"/></mask><path id="d" d="M17 7h17v47H17z"/><mask id="i" x="0" y="0" width="17" height="47" fill="#fff"><use xlink:href="#d"/></mask><path id="e" d="M31 0h12v54H31z"/><mask id="j" x="0" y="0" width="12" height="54" fill="#fff"><use xlink:href="#e"/></mask></defs><g stroke="#D1D3D6" fill="none" fill-rule="evenodd"><use mask="url(#f)" stroke-width="4" fill="#FFF" xlink:href="#a"/><circle stroke-width="2" fill="#FFF" cx="11.5" cy="40.5" r="7.5"/><g transform="translate(81)"><use mask="url(#g)" stroke-width="4" fill="#FFF" xlink:href="#b"/><path d="M5.5 20h1M5.5 24h1M5.5 28h1M5.5 32h1" stroke-width="2" stroke-linecap="square"/><use mask="url(#h)" stroke-width="4" fill="#FFF" xlink:href="#c"/><use mask="url(#i)" stroke-width="4" fill="#FFF" xlink:href="#d"/><path d="M24 13.5v14" stroke-width="2" stroke-linecap="square"/><use mask="url(#j)" stroke-width="4" fill="#FFF" xlink:href="#e"/><path d="M23.5 34h2M23.5 38h2M37.5 13h2M37.5 17h2M37.5 21h2M37.5 25h2M10.5 38h7M10.5 44h7" stroke-width="2" stroke-linecap="square"/></g></g></svg>