<svg width="81" height="38" viewBox="0 0 81 38" xmlns="http://www.w3.org/2000/svg" xmlns:xlink="http://www.w3.org/1999/xlink"><title>box</title><defs><path id="a" d="M0 0h81v38H0z"/><mask id="c" x="0" y="0" width="81" height="38" fill="#fff"><use xlink:href="#a"/></mask><path id="b" d="M8 19h15v9H8z"/><mask id="d" x="0" y="0" width="15" height="9" fill="#fff"><use xlink:href="#b"/></mask></defs><g stroke="#D1D3D6" fill="none" fill-rule="evenodd"><use mask="url(#c)" stroke-width="4" fill="#FFF" xlink:href="#a"/><path d="M29 1.5v34M1.5 11h77M38 2.5v8M47 2.5v8M56 2.5v8M65 2.5v8M73 2.5v8" stroke-width="2" stroke-linecap="square"/><use mask="url(#d)" stroke-width="4" xlink:href="#b"/><path d="M35.5 17h12M35.5 23h40M5 2.5v8M9 2.5v8M14 2.5v8M19 2.5v8M24 2.5v8" stroke-width="2" stroke-linecap="square"/></g></svg>