<svg width="52" height="72" viewBox="0 0 52 72" xmlns="http://www.w3.org/2000/svg" xmlns:xlink="http://www.w3.org/1999/xlink"><title>bugly</title><defs><ellipse id="a" cx="14.5" cy="66.5" rx="9.5" ry="4.5"/><mask id="i" x="0" y="0" width="19" height="9" fill="#fff"><use xlink:href="#a"/></mask><ellipse id="b" cx="35.5" cy="66.5" rx="9.5" ry="4.5"/><mask id="j" x="0" y="0" width="19" height="9" fill="#fff"><use xlink:href="#b"/></mask><path d="M7 41S2.5 54 9 61s13.5 7 16.5 7S37 66.5 41 61.5s4.5-10 2-21C22 39 7 41 7 41z" id="c"/><mask id="k" x="0" y="0" width="39.045" height="28.058" fill="#fff"><use xlink:href="#c"/></mask><path d="M11 45s-.858 4.996 0 9.732C11.863 59.496 17.47 64 25.485 64s12.702-3.744 14.105-8.454C41.017 50.756 40 45 40 45H11z" id="d"/><mask id="l" x="0" y="0" width="29.733" height="19" fill="#fff"><use xlink:href="#d"/></mask><path d="M6.5 37s-1.5-7.5 1-15S16 10.5 22 9.5s10.5.5 14.5 3.5S45 22.5 44 35 26 46 26 46 8.5 47.5 6.5 37z" id="e"/><mask id="m" x="0" y="0" width="38.088" height="36.883" fill="#fff"><use xlink:href="#e"/></mask><path d="M10.312 45.5S9 51.5 9 53s.656 3.5 2.625 4c1.97.5 5.25.5 5.906.5.657 0 1.97 0 1.97-2.5v-7.5l-9.188-2z" id="f"/><mask id="n" x="0" y="0" width="10.5" height="12" fill="#fff"><use xlink:href="#f"/></mask><path d="M7 34.5S11.5 44 25.5 44s18-10 18-10 2.5 0 2 7c-6.5 9-14 9.5-20 9.5S11 50 5.5 41C5 36.5 7 34.5 7 34.5z" id="g"/><mask id="o" x="0" y="0" width="40.146" height="16.5" fill="#fff"><use xlink:href="#g"/></mask><path d="M22.5 16.5s-1 1.5 0 2.5 4.5 3.5 4.5 3.5 1.5-6.5-1.5-6.5-3 .5-3 .5z" id="h"/><mask id="p" x="0" y="0" width="5.319" height="6.5" fill="#fff"><use xlink:href="#h"/></mask></defs><g transform="translate(1 1)" fill="none" fill-rule="evenodd"><use stroke="#D1D3D6" mask="url(#i)" stroke-width="4" fill="#FFF" xlink:href="#a"/><use stroke="#D1D3D6" mask="url(#j)" stroke-width="4" fill="#FFF" xlink:href="#b"/><use stroke="#D1D3D6" mask="url(#k)" stroke-width="4" stroke-linecap="round" stroke-linejoin="round" fill="#FFF" xlink:href="#c"/><use stroke="#D1D3D6" mask="url(#l)" stroke-width="4" stroke-linecap="round" stroke-linejoin="round" fill="#FFF" xlink:href="#d"/><path d="M9 39s-6 4.777-7.5 9.777C0 53.777.5 58 1 58.5S7 56 8 51M42 38s6.5 4.5 7.5 13-1.5 6.5-1.5 6.5-5.5-4-6-7.5" stroke="#D1D3D6" stroke-width="2" stroke-linecap="round" stroke-linejoin="round" fill="#FFF"/><use stroke="#D1D3D6" mask="url(#m)" stroke-width="4" fill="#FFF" xlink:href="#e"/><use stroke="#D1D3D6" mask="url(#n)" stroke-width="4" fill="#FFF" xlink:href="#f"/><use stroke="#D1D3D6" mask="url(#o)" stroke-width="4" fill="#FFF" xlink:href="#g"/><path d="M26 44s-14.5 1.5-15-8.5 6.782-15 14.282-15S40.5 25 39.5 36.5C39 44.5 26 44 26 44z" fill="#D1D3D6"/><ellipse fill="#FFF" cx="30.5" cy="28.5" rx="3.5" ry="5.5"/><ellipse fill="#FFF" cx="20.5" cy="28.5" rx="3.5" ry="5.5"/><ellipse fill="#D1D3D6" cx="21.5" cy="29" rx="1.5" ry="2"/><use stroke="#D1D3D6" mask="url(#p)" stroke-width="4" fill="#FFF" xlink:href="#h"/><path d="M28 29.5s0-3 1.5-2.5 1 2.5 1 2.5" stroke="#D1D3D6" stroke-linecap="round"/><path d="M18.762 39.98c-.54.088-3.502-1.04-3.66-2.145-.085-.61 4.088-3.35 10.607-3.477 7.066-.135 11.255 2.832 11.187 3.44-.07.634-2.287 2.15-3.75 2.113 0 0 1.415-1.685 1.415-2.023 0-.394-3.21 3.722-9.323 3.454-4.125-.18-7.237-3.13-7.51-3.355-.275-.225 1.032 1.996 1.032 1.996" fill="#FFF"/><path d="M26.5 3c.5 1-2 5.5-2 8.5 5-2 9.5 1 9.5 1s-2-8-7.5-9.5zM11.5 5s6.5 3 0 11.5c10.5-3.5 8-6 8-6s-2-5-8-5.5z" stroke="#D1D3D6" stroke-width="2" stroke-linecap="round" stroke-linejoin="round" fill="#FFF"/><path d="M17 .5c1.5 2.5 2 8 2 12.5.5 0 3.5-1 5.5.5 1.5-2.5 4.5-3 4.5-3S24.5 1 17 .5z" stroke="#D1D3D6" stroke-width="2" stroke-linecap="round" stroke-linejoin="round" fill="#FFF"/><path d="M15 20c0-1 0-2 1.5-2.5s2.5 1 2.5 1M29 16.5c0-1 .5-2 2-2s2 2 2 2" stroke="#D1D3D6" stroke-width="2" stroke-linecap="round"/></g></svg>