<svg width="81" height="140" viewBox="0 0 81 140" xmlns="http://www.w3.org/2000/svg" xmlns:xlink="http://www.w3.org/1999/xlink"><title>chair</title><defs><rect id="a" x="25" y="67" width="56" height="13" rx="4"/><mask id="k" x="0" y="0" width="56" height="13" fill="#fff"><use xlink:href="#a"/></mask><rect id="b" x="10" y="67" width="56" height="13" rx="4"/><mask id="l" x="0" y="0" width="56" height="13" fill="#fff"><use xlink:href="#b"/></mask><rect id="c" x="29" y="33" width="12" height="59" rx="6"/><mask id="m" x="0" y="0" width="12" height="59" fill="#fff"><use xlink:href="#c"/></mask><rect id="d" x="35" y="90" width="6" height="20" rx="3"/><mask id="n" x="0" y="0" width="6" height="20" fill="#fff"><use xlink:href="#d"/></mask><path d="M7.953 9.924c-.345-3.387 2.937-6.468 7.323-6.882L47.023.047c4.39-.414 8.54 1.96 9.275 5.315l12.125 55.38c.733 3.35-2.226 6.4-6.62 6.814l-39.57 3.734c-4.388.414-8.225-1.99-8.57-5.382L7.952 9.924" id="e"/><mask id="o" x="0" y="0" width="60.606" height="71.336" fill="#fff"><use xlink:href="#e"/></mask><path d="M.38 10.924C.037 7.537 3.318 4.456 7.704 4.042L39.45 1.047c4.39-.414 8.54 1.96 9.276 5.315l12.125 55.38c.734 3.35-2.225 6.4-6.618 6.814l-39.57 3.734c-4.39.414-8.226-1.99-8.572-5.382L.38 10.924" id="f"/><mask id="p" x="0" y="0" width="60.606" height="71.336" fill="#fff"><use xlink:href="#f"/></mask><rect id="g" x="32" y="107" width="12" height="20" rx="6"/><mask id="q" x="0" y="0" width="12" height="20" fill="#fff"><use xlink:href="#g"/></mask><path d="M42 116l30.082 7.2s1.096.237 1.917 1.3c.82 1.063 1 2.5 1 2.5v13h-7v-10.5s.018-1-.5-1.5c-.52-.5-1-.5-1-.5L42 122v-6z" id="h"/><mask id="r" x="0" y="0" width="33" height="24" fill="#fff"><use xlink:href="#h"/></mask><path d="M16 124l18-7v6l-12.464 4.896S21 128 20.5 128.5 20 130 20 130v10h-6.994v-12.104S13 126.5 14 125.5s2-1.5 2-1.5z" id="i"/><mask id="s" x="0" y="0" width="20.994" height="23" fill="#fff"><use xlink:href="#i"/></mask><path d="M42 116l14 9.5s1 .5 2 1.5 1 2 1 2v11h-7v-7.5s.043-1.5-.5-2.5-1.5-1.488-1.5-1.488L42 123v-7z" id="j"/><mask id="t" x="0" y="0" width="17" height="24" fill="#fff"><use xlink:href="#j"/></mask></defs><g stroke="#1A2530" stroke-width="4" fill="#FFF" fill-rule="evenodd"><use mask="url(#k)" xlink:href="#a"/><use mask="url(#l)" xlink:href="#b"/><use mask="url(#m)" transform="rotate(-7 35 62.5)" xlink:href="#c"/><use mask="url(#n)" xlink:href="#d"/><use mask="url(#o)" xlink:href="#e"/><use mask="url(#p)" xlink:href="#f"/><use mask="url(#q)" xlink:href="#g"/><use mask="url(#r)" xlink:href="#h"/><use mask="url(#s)" xlink:href="#i"/><use mask="url(#t)" xlink:href="#j"/></g></svg>