<svg width="51" height="91" viewBox="0 0 51 91" xmlns="http://www.w3.org/2000/svg" xmlns:xlink="http://www.w3.org/1999/xlink"><title>chart</title><defs><rect id="a" width="43" height="72" rx="4"/><mask id="i" x="0" y="0" width="43" height="72" fill="#fff"><use xlink:href="#a"/></mask><path id="b" d="M9 70h8v21H9z"/><mask id="j" x="0" y="0" width="8" height="21" fill="#fff"><use xlink:href="#b"/></mask><path id="c" d="M23 70h8v21h-8z"/><mask id="k" x="0" y="0" width="8" height="21" fill="#fff"><use xlink:href="#c"/></mask><path id="d" d="M34 70h8l6 21h-8z"/><mask id="l" x="0" y="0" width="14" height="21" fill="#fff"><use xlink:href="#d"/></mask><rect id="e" x="41" width="10" height="43" rx="4"/><mask id="m" x="0" y="0" width="10" height="43" fill="#fff"><use xlink:href="#e"/></mask><path id="f" d="M7 21h8v32H7z"/><mask id="n" x="0" y="0" width="8" height="32" fill="#fff"><use xlink:href="#f"/></mask><path id="g" d="M17 33h8v20h-8z"/><mask id="o" x="0" y="0" width="8" height="20" fill="#fff"><use xlink:href="#g"/></mask><path id="h" d="M27 43h8v10h-8z"/><mask id="p" x="0" y="0" width="8" height="10" fill="#fff"><use xlink:href="#h"/></mask></defs><g fill="none" fill-rule="evenodd"><use stroke="#1A2530" mask="url(#i)" stroke-width="4" fill="#FFF" xlink:href="#a"/><path d="M8.5 58h26" stroke="#1A2530" stroke-width="2" stroke-linecap="square"/><use stroke="#1A2530" mask="url(#j)" stroke-width="4" fill="#FFF" xlink:href="#b"/><use stroke="#1A2530" mask="url(#k)" stroke-width="4" fill="#FFF" xlink:href="#c"/><use stroke="#1A2530" mask="url(#l)" stroke-width="4" fill="#FFF" xlink:href="#d"/><use stroke="#1A2530" mask="url(#m)" stroke-width="4" fill="#FFF" xlink:href="#e"/><use stroke="#E8E9EA" mask="url(#n)" stroke-width="4" xlink:href="#f"/><use stroke="#E8E9EA" mask="url(#o)" stroke-width="4" xlink:href="#g"/><use stroke="#E8E9EA" mask="url(#p)" stroke-width="4" xlink:href="#h"/><path stroke="#1A2530" stroke-width="2" stroke-linecap="round" d="M7.667 47.596l7.316-7.007 6.444 2.304L33 29"/><path stroke="#1A2530" stroke-width="2" d="M25.408 30.625l8.094-2.377 1.51 7.54"/></g></svg>