<svg width="41" height="47" viewBox="0 0 41 47" xmlns="http://www.w3.org/2000/svg" xmlns:xlink="http://www.w3.org/1999/xlink"><title>chips</title><defs><rect id="a" x="12" y="8" width="6" height="27" rx="3"/><mask id="k" x="0" y="0" width="6" height="27" fill="#fff"><use xlink:href="#a"/></mask><rect id="b" x="16" y="3" width="6" height="27" rx="3"/><mask id="l" x="0" y="0" width="6" height="27" fill="#fff"><use xlink:href="#b"/></mask><rect id="c" x="20" y="6" width="6" height="27" rx="3"/><mask id="m" x="0" y="0" width="6" height="27" fill="#fff"><use xlink:href="#c"/></mask><rect id="d" x="24" width="6" height="27" rx="3"/><mask id="n" x="0" y="0" width="6" height="27" fill="#fff"><use xlink:href="#d"/></mask><rect id="e" x="28" y="9" width="6" height="27" rx="3"/><mask id="o" x="0" y="0" width="6" height="27" fill="#fff"><use xlink:href="#e"/></mask><rect id="f" x="32" y="4" width="6" height="27" rx="3"/><mask id="p" x="0" y="0" width="6" height="27" fill="#fff"><use xlink:href="#f"/></mask><rect id="g" x="4" y="6" width="6" height="17" rx="3"/><mask id="q" x="0" y="0" width="6" height="17" fill="#fff"><use xlink:href="#g"/></mask><rect id="h" x="8" y="3" width="6" height="27" rx="3"/><mask id="r" x="0" y="0" width="6" height="27" fill="#fff"><use xlink:href="#h"/></mask><path d="M9.107 15.158C4.6 14.593.88 14 .88 14l3.1 33h33.794l3.107-33s-3.53.582-7.85 1.142c-.022 2.468-1.022 6.263-1.022 6.263S24 27.84 21.006 27.84c-3.117 0-11.003-6.435-11.003-6.435s-.874-3.804-.896-6.247z" id="i"/><mask id="s" x="0" y="0" width="40" height="33" fill="#fff"><use xlink:href="#i"/></mask><path id="j" d="M15.117 32.004V42h2.058v-7.014h.028L19.653 42h1.694l2.45-7.084h.028V42h2.058v-9.996H22.79l-2.213 6.874h-.028l-2.34-6.874z"/><mask id="t" x="0" y="0" width="10.766" height="9.996" fill="#fff"><use xlink:href="#j"/></mask></defs><g stroke="#1A2530" fill="none" fill-rule="evenodd"><use mask="url(#k)" stroke-width="4" fill="#FFF" xlink:href="#a"/><use mask="url(#l)" stroke-width="4" fill="#FFF" xlink:href="#b"/><use mask="url(#m)" stroke-width="4" fill="#FFF" xlink:href="#c"/><use mask="url(#n)" stroke-width="4" fill="#FFF" xlink:href="#d"/><use mask="url(#o)" stroke-width="4" fill="#FFF" xlink:href="#e"/><use mask="url(#p)" stroke-width="4" fill="#FFF" xlink:href="#f"/><use mask="url(#q)" stroke-width="4" fill="#FFF" xlink:href="#g"/><use mask="url(#r)" stroke-width="4" fill="#FFF" xlink:href="#h"/><use mask="url(#s)" stroke-width="4" fill="#FFF" xlink:href="#i"/><use mask="url(#t)" stroke-width="2" fill="#1A2530" xlink:href="#j"/></g></svg>