<svg width="42" height="60" viewBox="0 0 42 60" xmlns="http://www.w3.org/2000/svg" xmlns:xlink="http://www.w3.org/1999/xlink"><title>coffee</title><defs><path d="M41.996 16c.003-.08.004-.16.004-.242v-3.266C42 8.905 39.093 6 35.507 6H6.493C2.92 6 0 8.907 0 12.492v3.266c0 .08 0 .162.004.242h41.992z" id="a"/><mask id="e" x="0" y="0" width="42" height="10" fill="#fff"><use xlink:href="#a"/></mask><path id="b" d="M4 14h34l-3.986 46H8.122z"/><mask id="f" x="0" y="0" width="34" height="46" fill="#fff"><use xlink:href="#b"/></mask><path id="c" d="M3.468 21h35.106L35.99 41H6.062z"/><mask id="g" x="0" y="0" width="35.106" height="20" fill="#fff"><use xlink:href="#c"/></mask><path id="d" d="M6 0h30v8H6z"/><mask id="h" x="0" y="0" width="30" height="8" fill="#fff"><use xlink:href="#d"/></mask></defs><g stroke="#1A2530" stroke-width="4" fill="#FFF" fill-rule="evenodd"><use mask="url(#e)" xlink:href="#a"/><use mask="url(#f)" xlink:href="#b"/><use mask="url(#g)" stroke-linecap="round" stroke-linejoin="bevel" xlink:href="#c"/><use mask="url(#h)" xlink:href="#d"/></g></svg>