<svg width="189" height="161" viewBox="0 0 189 161" xmlns="http://www.w3.org/2000/svg" xmlns:xlink="http://www.w3.org/1999/xlink"><title>computer1</title><defs><rect id="a" width="189" height="119" rx="12"/><mask id="e" x="0" y="0" width="189" height="119" fill="#fff"><use xlink:href="#a"/></mask><rect id="f" width="173" height="93" rx="4"/><rect id="b" x="8" y="8" width="173" height="93" rx="4"/><mask id="h" x="0" y="0" width="173" height="93" fill="#fff"><use xlink:href="#b"/></mask><path id="c" d="M74.18 117h41.58L126 153H64z"/><mask id="i" x="0" y="0" width="62" height="36" fill="#fff"><use xlink:href="#c"/></mask><rect id="d" x="40" y="146" width="109" height="15" rx="7.5"/><mask id="j" x="0" y="0" width="109" height="15" fill="#fff"><use xlink:href="#d"/></mask></defs><g fill="none" fill-rule="evenodd"><use stroke="#1A2530" mask="url(#e)" stroke-width="4" fill="#FFF" xlink:href="#a"/><path d="M87.5 106h15" stroke="#1A2530" stroke-width="2" stroke-linecap="round" stroke-linejoin="round"/><g transform="translate(8 8)"><mask id="g" fill="#fff"><use xlink:href="#f"/></mask><use fill="#D1D3D6" xlink:href="#f"/><g transform="translate(10 10)" mask="url(#g)" fill="#FFF"><rect opacity=".6" width="18" height="4" rx="2"/><rect opacity=".6" x="8" y="8" width="18" height="4" rx="2"/><rect opacity=".6" x="8" y="16" width="18" height="4" rx="2"/><rect opacity=".6" x="8" y="24" width="18" height="4" rx="2"/><rect opacity=".6" x="8" y="32" width="16" height="4" rx="2"/><rect opacity=".6" x="16" y="40" width="16" height="4" rx="2"/><rect x="44" y="48" width="28" height="4" rx="2"/><rect x="36" y="40" width="28" height="4" rx="2"/><rect x="16" y="48" width="24" height="4" rx="2"/><rect opacity=".6" x="30" y="56" width="18" height="4" rx="2"/><rect x="52" y="56" width="18" height="4" rx="2"/><rect opacity=".6" x="74" y="56" width="12" height="4" rx="2"/><rect x="16" y="56" width="10" height="4" rx="2"/><rect opacity=".6" x="16" y="80" width="12" height="4" rx="2"/><rect opacity=".6" x="48" y="88" width="12" height="4" rx="2"/><rect x="32" y="80" width="16" height="4" rx="2"/><rect x="16" y="88" width="28" height="4" rx="2"/><rect x="38" y="96" width="18" height="4" rx="2"/><rect x="60" y="96" width="18" height="4" rx="2"/><rect opacity=".6" x="16" y="96" width="18" height="4" rx="2"/><rect x="8" y="112" width="6" height="4" rx="2"/><rect x="16" y="104" width="28" height="4" rx="2"/><rect opacity=".6" x="8" y="128" width="18" height="4" rx="2"/><rect opacity=".6" x="8" y="136" width="12" height="4" rx="2"/><rect opacity=".6" x="24" y="136" width="12" height="4" rx="2"/><rect opacity=".6" x="76" y="136" width="12" height="4" rx="2"/><rect x="92" y="136" width="12" height="4" rx="2"/><rect x="40" y="136" width="32" height="4" rx="2"/><rect x="68" y="104" width="16" height="4" rx="2"/><rect x="88" y="104" width="32" height="4" rx="2"/><rect opacity=".6" x="48" y="104" width="16" height="4" rx="2"/><rect x="64" y="88" width="38" height="4" rx="2"/><rect x="68" y="80" width="20" height="4" rx="2"/><rect opacity=".6" x="52" y="80" width="12" height="4" rx="2"/><rect x="8" y="64" width="6" height="4" rx="2"/><rect opacity=".6" x="8" y="72" width="10" height="4" rx="2"/><rect x="22" y="72" width="6" height="4" rx="2"/><rect opacity=".6" x="62" y="32" width="18" height="4" rx="2"/><rect opacity=".6" x="124" y="32" width="10" height="4" rx="2"/><rect x="30" y="8" width="14" height="4" rx="2"/><rect opacity=".6" x="48" y="8" width="24" height="4" rx="2"/><rect opacity=".6" x="30" y="16" width="30" height="4" rx="2"/><rect opacity=".6" x="64" y="16" width="20" height="4" rx="2"/><rect x="30" y="24" width="36" height="4" rx="2"/><rect x="28" y="32" width="30" height="4" rx="2"/><rect x="84" y="32" width="36" height="4" rx="2"/><rect x="138" y="32" width="12" height="4" rx="2"/><rect opacity=".6" x="22" width="14" height="4" rx="2"/><rect x="40" width="26" height="4" rx="2"/><rect opacity=".6" x="70" width="18" height="4" rx="2"/><rect x="92" width="18" height="4" rx="2"/></g></g><use stroke="#1A2530" mask="url(#h)" stroke-width="4" xlink:href="#b"/><use stroke="#1A2530" mask="url(#i)" stroke-width="4" fill="#FFF" xlink:href="#c"/><use stroke="#1A2530" mask="url(#j)" stroke-width="4" fill="#FFF" xlink:href="#d"/></g></svg>