<svg width="171" height="124" viewBox="0 0 171 124" xmlns="http://www.w3.org/2000/svg" xmlns:xlink="http://www.w3.org/1999/xlink"><title>monitor2</title><defs><path id="a" d="M75 95h18v29H75z"/><mask id="u" x="0" y="0" width="18" height="29" fill="#fff"><use xlink:href="#a"/></mask><rect id="b" x="54" y="115" width="60" height="9" rx="4"/><mask id="v" x="0" y="0" width="60" height="9" fill="#fff"><use xlink:href="#b"/></mask><rect id="c" x="11" width="146" height="98" rx="2"/><mask id="w" x="0" y="0" width="146" height="98" fill="#fff"><use xlink:href="#c"/></mask><path d="M29.397 29H45v34H20V38.397L29.397 29z" id="d"/><mask id="x" x="0" y="0" width="25" height="34" fill="#fff"><use xlink:href="#d"/></mask><path d="M19.397 23H35v34H10V32.397L19.397 23z" id="e"/><mask id="y" x="0" y="0" width="25" height="34" fill="#fff"><use xlink:href="#e"/></mask><path d="M9.397 0H25v34H0V9.397L9.397 0z" id="f"/><mask id="z" x="0" y="0" width="25" height="34" fill="#fff"><use xlink:href="#f"/></mask><path id="g" d="M0 9h64v44H0z"/><mask id="A" x="0" y="0" width="64" height="44" fill="#fff"><use xlink:href="#g"/></mask><path id="h" d="M0 0h64v11H0z"/><mask id="B" x="0" y="0" width="64" height="11" fill="#fff"><use xlink:href="#h"/></mask><circle id="i" cx="6.5" cy="5.5" r="1.5"/><mask id="C" x="0" y="0" width="3" height="3" fill="#fff"><use xlink:href="#i"/></mask><circle id="j" cx="11.5" cy="5.5" r="1.5"/><mask id="D" x="0" y="0" width="3" height="3" fill="#fff"><use xlink:href="#j"/></mask><circle id="k" cx="16.5" cy="5.5" r="1.5"/><mask id="E" x="0" y="0" width="3" height="3" fill="#fff"><use xlink:href="#k"/></mask><path id="l" d="M6 15h20v14H6z"/><mask id="F" x="0" y="0" width="20" height="14" fill="#fff"><use xlink:href="#l"/></mask><path id="m" d="M6 33h25v7H6z"/><mask id="G" x="0" y="0" width="25" height="7" fill="#fff"><use xlink:href="#m"/></mask><path id="n" d="M33 33h25v7H33z"/><mask id="H" x="0" y="0" width="25" height="7" fill="#fff"><use xlink:href="#n"/></mask><path id="o" d="M31 15h24v3H31z"/><mask id="I" x="0" y="0" width="24" height="3" fill="#fff"><use xlink:href="#o"/></mask><path id="p" d="M31 20h24v3H31z"/><mask id="J" x="0" y="0" width="24" height="3" fill="#fff"><use xlink:href="#p"/></mask><path id="q" d="M31 25h17v3H31z"/><mask id="K" x="0" y="0" width="17" height="3" fill="#fff"><use xlink:href="#q"/></mask><rect id="r" x="141.23" y="3.23" width="19" height="19" rx="2"/><mask id="L" x="0" y="0" width="19" height="19" fill="#fff"><use xlink:href="#r"/></mask><rect id="s" x="149.362" y="31.362" width="19" height="19" rx="2"/><mask id="M" x="0" y="0" width="19" height="19" fill="#fff"><use xlink:href="#s"/></mask><rect id="t" x="1.362" y="1.362" width="19" height="19" rx="2"/><mask id="N" x="0" y="0" width="19" height="19" fill="#fff"><use xlink:href="#t"/></mask></defs><g fill="none" fill-rule="evenodd"><use stroke="#1A2530" mask="url(#u)" stroke-width="4" fill="#FFF" xlink:href="#a"/><use stroke="#1A2530" mask="url(#v)" stroke-width="4" fill="#FFF" xlink:href="#b"/><use stroke="#1A2530" mask="url(#w)" stroke-width="4" fill="#FFF" xlink:href="#c"/><path d="M12.5 84h142" stroke="#1A2530" stroke-width="2" stroke-linecap="square"/><g transform="translate(13 2)"><use stroke="#D1D3D6" mask="url(#x)" stroke-width="4" fill="#FFF" xlink:href="#d"/><g stroke="#D1D3D6" stroke-width="2" stroke-linecap="square"><path d="M28 38h9M26 42h10M26 46h5.1M26 50h12M26 54h14"/></g><use stroke="#D1D3D6" mask="url(#y)" stroke-width="4" fill="#FFF" xlink:href="#e"/><g transform="translate(40 12)" stroke="#1A2530"><use mask="url(#z)" stroke-width="4" fill="#FFF" xlink:href="#f"/><path d="M8 9h9M6 13h11M6 17h13M6 21h13M6 29h13" stroke-width="2" stroke-linecap="square"/></g><g transform="translate(70 19)"><use stroke="#1A2530" mask="url(#A)" stroke-width="4" fill="#FFF" xlink:href="#g"/><use stroke="#1A2530" mask="url(#B)" stroke-width="4" fill="#FFF" transform="matrix(1 0 0 -1 0 11)" xlink:href="#h"/><use stroke="#1A2530" mask="url(#C)" stroke-width="4" fill="#1A2530" xlink:href="#i"/><use stroke="#1A2530" mask="url(#D)" stroke-width="4" fill="#1A2530" xlink:href="#j"/><use stroke="#1A2530" mask="url(#E)" stroke-width="4" fill="#1A2530" xlink:href="#k"/><use stroke="#D1D3D6" mask="url(#F)" stroke-width="4" fill="#FFF" xlink:href="#l"/><use stroke="#D1D3D6" mask="url(#G)" stroke-width="4" fill="#FFF" xlink:href="#m"/><use stroke="#D1D3D6" mask="url(#H)" stroke-width="4" fill="#FFF" xlink:href="#n"/><path fill="#D8D8D8" d="M6 42h20v2H6zM33 42h15v2H33zM33 46h8v2h-8zM6 46h16v2H6z"/><use stroke="#D1D3D6" mask="url(#I)" stroke-width="4" fill="#FFF" xlink:href="#o"/><use stroke="#D1D3D6" mask="url(#J)" stroke-width="4" fill="#FFF" xlink:href="#p"/><use stroke="#D1D3D6" mask="url(#K)" stroke-width="4" fill="#FFF" xlink:href="#q"/><path d="M7 16l18 12M7 28l18-12" stroke="#D1D3D6" stroke-width="2"/></g></g><g transform="translate(0 5)" stroke="#1A2530"><use mask="url(#L)" stroke-width="4" fill="#FFF" transform="rotate(8 150.73 12.73)" xlink:href="#r"/><use mask="url(#M)" stroke-width="4" fill="#FFF" transform="rotate(-17 158.862 40.862)" xlink:href="#s"/><use mask="url(#N)" stroke-width="4" fill="#FFF" transform="rotate(4 10.862 10.862)" xlink:href="#t"/><path d="M6 11l6.5.5M6.5 7l8.5.5" stroke-width="2"/></g></g></svg>