<svg width="144" height="129" viewBox="0 0 144 129" xmlns="http://www.w3.org/2000/svg" xmlns:xlink="http://www.w3.org/1999/xlink"><title>monitor1</title><defs><rect id="a" width="144" height="95" rx="4"/><mask id="f" x="0" y="0" width="144" height="95" fill="#fff"><use xlink:href="#a"/></mask><path id="b" d="M8 8h128v76H8z"/><mask id="g" x="0" y="0" width="128" height="76" fill="#fff"><use xlink:href="#b"/></mask><path d="M66 93H53l-3.013 36h44.02L91 93H78v14c0 3.313-2.693 6-6 6-3.314 0-6-2.677-6-6V93z" id="c"/><mask id="h" x="0" y="0" width="44.02" height="36" fill="#fff"><use xlink:href="#c"/></mask><rect id="d" x="33" y="121" width="78" height="8" rx="4"/><mask id="i" x="0" y="0" width="78" height="8" fill="#fff"><use xlink:href="#d"/></mask><circle id="e" cx="132.5" cy="87.5" r="2.5"/><mask id="j" x="0" y="0" width="5" height="5" fill="#fff"><use xlink:href="#e"/></mask></defs><g fill="none" fill-rule="evenodd"><use stroke="#1A2530" mask="url(#f)" stroke-width="4" fill="#FFF" xlink:href="#a"/><use stroke="#1A2530" mask="url(#g)" stroke-width="4" fill="#FFF" xlink:href="#b"/><path stroke="#1A2530" stroke-width="2" d="M112 87h3v1h-3zM118 87h3v1h-3zM124 87h3v1h-3z"/><use stroke="#1A2530" mask="url(#h)" stroke-width="4" fill="#FFF" xlink:href="#c"/><use stroke="#1A2530" mask="url(#i)" stroke-width="4" fill="#FFF" xlink:href="#d"/><use stroke="#1A2530" mask="url(#j)" stroke-width="4" fill="#FFF" xlink:href="#e"/><text font-family="Consolas-Bold, Consolas, sans-serif" font-size="16" font-weight="bold" fill="#1A2530"><tspan x="19" y="52">Hello, World</tspan></text></g></svg>