<svg width="135" height="339" viewBox="0 0 135 339" xmlns="http://www.w3.org/2000/svg" xmlns:xlink="http://www.w3.org/1999/xlink"><title>pdm</title><defs><path d="M16.65 36.054c.07-16.84 13.784-30.49 30.628-30.49h1.58c16.846 0 30.5 13.652 30.5 30.495v84.482c0 16.842-13.654 30.628-30.488 30.79l-2.22.023c-16.84.163-30.433-13.366-30.362-30.196l.36-85.106z" id="a"/><mask id="g" x="0" y="0" width="63.071" height="145.794" fill="#fff"><use xlink:href="#a"/></mask><path d="M25.93 60.494c0-1.997-.913-6.5-.913-6.5h13s.902 3.574.902 5.503c0 1.802-.903 5.69-.903 5.69s-3.262 1.807-6.5 1.807c-3.237 0-6.5-1.806-6.5-1.806s.913-2.96.913-4.694z" id="b"/><mask id="h" x="0" y="0" width="13.901" height="13" fill="#fff"><use xlink:href="#b"/></mask><path d="M55 13.77v17.936C55 45.233 44.034 56.2 30.5 56.2 16.97 56.2 6 45.233 6 31.705V12.74C23.584 9.266 34.206-6.62 38.06 3.552 40.08 8.885 50.336 12.115 55 13.77z" id="c"/><mask id="i" x="0" y="0" width="49" height="56" fill="#fff"><use xlink:href="#c"/></mask><path d="M78.618 56.387c.474-10.145-1.56-24.772-1.43-32.05.034-1.975 2.732-7.643 2.732-7.643 1.548-3.53 5.918-6.816 9.735-7.337l25.414-3.47c3.827-.524 6.71 2.177 6.408 6.028 0 0-.394 7.252-1.228 9.967-2.848 9.277-10.847 25.072-10.847 35.693 0 12.98 11.81 39.745 11.81 39.745.434 1.013-.115 1.762-1.2 1.676L78.786 95.69c-1.655-.134-2.886-1.574-2.75-3.236 0 0 2.022-24.04 2.583-36.067z" id="d"/><mask id="j" x="0" y="0" width="45.474" height="93.181" fill="#fff"><use xlink:href="#d"/></mask><rect id="e" y="1" width="26" height="32" rx="2"/><mask id="k" x="0" y="0" width="26" height="32" fill="#fff"><use xlink:href="#e"/></mask><rect id="f" x="6.634" y="7.549" width="9" height="10" rx="2"/><mask id="l" x="0" y="0" width="9" height="10" fill="#fff"><use xlink:href="#f"/></mask></defs><g stroke="#1A2530" fill="none" fill-rule="evenodd"><g transform="rotate(-13 51.37 -163.3)"><path d="M45.3 79.46s-2.304 8.333-5.34 10.61c-3.036 2.276 9.564 1.166 9.564 1.166s3.368-7.008 3.368-10.465-7.592-1.31-7.592-1.31z" stroke-width="2"/><use mask="url(#g)" stroke-width="4" fill="#D1D3D6" transform="rotate(13 47.824 78.46)" xlink:href="#a"/><g transform="rotate(14 -65.25 131.647)"><path d="M53.48 23.166s9.428-1.756 9.428 6.278c0 8.035-6.976 9.388-9.427 10.133" stroke-width="2" fill="#FFF"/><path d="M58.695 29.25s-1.862 3.83-3.627 3.082" stroke-width="2" stroke-linecap="round"/><g stroke-width="2"><path d="M9.518 23.114S.09 21.357.09 29.392 7.07 38.78 9.52 39.525" fill="#FFF"/><path d="M4.305 29.197s1.86 3.832 3.627 3.082" stroke-linecap="round"/></g><use mask="url(#h)" stroke-width="4" fill="#FFF" xlink:href="#b"/><use mask="url(#i)" stroke-width="4" fill="#FFF" xlink:href="#c"/><g transform="translate(15.035 22.052)" stroke-width="2"><path d="M4.853 3.827c.552 0 1-.448 1-1s-.448-1-1-1-1 .448-1 1 .448 1 1 1z"/><ellipse cx="25.853" cy="2.827" rx="1" ry="1"/><path d="M.227 3.164S1.693.21 6.312.718M21.223 2.798S22.69-.156 27.31.352" stroke-linecap="round"/></g><path d="M24.037 18.54s-7.33-.246-10.72.29M46.034 18.157s-7.33-.247-10.72.29M31.383 42.122c2.048 0 8.365-.556 10.098-5.198" stroke-width="2" stroke-linecap="round"/></g></g><g transform="translate(1 76)" fill="#FFF"><path d="M76.515 94.064c-1.548 4.393-12.462 57.028-14.018 64.2-1.556 7.173-.87 8.72-.87 12.13S48.55 250.106 48.55 251.912c0 1.806 7.552 1.37 7.552 1.37s15.973-47.986 17.456-52.757c1.482-4.77 2.353-20.573 3.957-27.522 1.603-6.948 16.52-46.673 16.52-46.673h3.16s-3.01 47.81-3.01 51.033c0 3.224 4.152 75.135 4.152 75.135l7.55.193s7.6-59.362 7.6-63.633c0-4.272-2.224-15.53-1.112-18.93 1.112-3.4 11.425-42.65 11.425-48.284s-4.63-24.72-4.63-24.72-41.108-7.45-42.655-3.06z" stroke-width="2"/><use mask="url(#j)" stroke-width="4" xlink:href="#d"/><path d="M87.09 11.837S53.322 35.31 40 34.377C26.412 31.435 3.615 26.31 3.615 26.31L.95 34.103S38.685 49.07 41.217 49.248c2.532.177 39.24-14.73 39.24-14.73" stroke-width="2" stroke-linecap="round"/><path d="M117.95 23.94C114.867 28.78 66 51.554 60.71 52.477c-5.292.922-11.25 2.605-11.87-.735-.622-3.34 5.615-47.938 5.615-47.938l8.14-3.782-2.7 37.847S107.1 11.867 110.25 7.938" stroke-width="2" stroke-linecap="round"/></g><g transform="rotate(17 -155.947 124.712)"><use mask="url(#k)" stroke-width="4" fill="#FFF" xlink:href="#e"/><path d="M25.5 9.116s7-4.077 7 10.474" stroke-width="2"/><path d="M9 .678v6" stroke-width="2" stroke-linecap="square"/><use mask="url(#l)" stroke-width="4" fill="#FFF" transform="rotate(-16 11.134 12.55)" xlink:href="#f"/></g><path stroke-width="2" fill="#FFF" d="M63.03 75.32l-5.096-11.285-12.026 5.32 8.19 11.25z"/><path d="M96.54 113.207s-.918 15.995-.918 20.943c0 4.95 7.896 37.89 7.896 37.89M86.3 118.785s-1.492 26.254-1.492 28.542C84.808 149.615 79.5 170 79.5 170M93.682 87.13l-2.548 8.737" stroke-width="2"/><path stroke-width="2" stroke-linecap="round" fill="#FFF" d="M48.32 328.648L24 338h31l2.71-8.73z"/><path stroke-width="2" fill="#FFF" d="M99 328l-24 10h32l.65-9.575z"/></g></svg>