<svg width="27" height="55" viewBox="0 0 27 55" xmlns="http://www.w3.org/2000/svg" xmlns:xlink="http://www.w3.org/1999/xlink"><title>pen</title><defs><path id="a" d="M0 6h6v29H0z"/><mask id="i" x="0" y="0" width="6" height="29" fill="#fff"><use xlink:href="#a"/></mask><rect id="b" width="6" height="8" rx="2"/><mask id="j" x="0" y="0" width="6" height="8" fill="#fff"><use xlink:href="#b"/></mask><path id="c" d="M6 6h3v2H6z"/><mask id="k" x="0" y="0" width="3" height="2" fill="#fff"><use xlink:href="#c"/></mask><path id="d" d="M7 8h2v10H7z"/><mask id="l" x="0" y="0" width="2" height="10" fill="#fff"><use xlink:href="#d"/></mask><path id="e" d="M0 6h6v29H0z"/><mask id="m" x="0" y="0" width="6" height="29" fill="#fff"><use xlink:href="#e"/></mask><rect id="f" width="6" height="8" rx="2"/><mask id="n" x="0" y="0" width="6" height="8" fill="#fff"><use xlink:href="#f"/></mask><path id="g" d="M0 21h24v34H0z"/><mask id="o" x="0" y="0" width="24" height="34" fill="#fff"><use xlink:href="#g"/></mask><path id="h" d="M0 21h24v12H0z"/><mask id="p" x="0" y="0" width="24" height="12" fill="#fff"><use xlink:href="#h"/></mask></defs><g stroke="#1A2530" stroke-width="4" fill="#FFF" fill-rule="evenodd"><g transform="rotate(7 4.325 148.8)"><use mask="url(#i)" xlink:href="#a"/><use mask="url(#j)" xlink:href="#b"/><use mask="url(#k)" xlink:href="#c"/><use mask="url(#l)" xlink:href="#d"/></g><g transform="rotate(-8 41.252 -15.752)"><use mask="url(#m)" xlink:href="#e"/><use mask="url(#n)" xlink:href="#f"/></g><use mask="url(#o)" xlink:href="#g"/><use mask="url(#p)" xlink:href="#h"/></g></svg>