<svg width="38" height="49" viewBox="0 0 38 49" xmlns="http://www.w3.org/2000/svg" xmlns:xlink="http://www.w3.org/1999/xlink"><title>plant1</title><defs><path d="M18 23.544c0-1.646.072-5.045.072-5.045.085-4.695 3.954-8.5 8.655-8.5h-.437c4.696 0 8.57 3.815 8.647 8.49 0 0 .063 3.08.063 4.74 0 1.557-.412 4.333-.412 4.333-.57 4.66-4.836 8.437-9.533 8.437h2.878c-4.694 0-8.977-3.784-9.537-8.433 0 0-.396-2.702-.396-4.023z" id="a"/><mask id="d" x="0" y="0" width="17" height="26" fill="#fff"><use xlink:href="#a"/></mask><path d="M5 17.67c0-2.027.098-7.668.098-7.668C5.176 5.03 9.263 1 14.24 1h-.462c4.972 0 9.063 4.033 9.135 8.99 0 0 .087 5.25.087 7.293 0 1.917-.58 6.778-.58 6.778C21.894 29 17.442 33 12.47 33h3.047c-4.97 0-9.434-4-9.954-8.95 0 0-.563-4.755-.563-6.38z" id="b"/><mask id="e" x="0" y="0" width="18" height="32" fill="#fff"><use xlink:href="#b"/></mask><rect id="c" y="40" width="38" height="8" rx="2"/><mask id="f" x="0" y="0" width="38" height="8" fill="#fff"><use xlink:href="#c"/></mask></defs><g transform="translate(0 1)" stroke="#1A2530" fill="none" fill-rule="evenodd"><use mask="url(#d)" stroke-width="4" fill="#FFF" xlink:href="#a"/><use mask="url(#e)" stroke-width="4" fill="#FFF" xlink:href="#b"/><path d="M15 .5v1" stroke-width="2" stroke-linecap="round"/><path d="M4.007 22h29.986C35.1 22 36 22.903 36 23.995V32.5C36 38.3 31.298 43 25.5 43h-13C6.703 43 2 38.3 2 32.5v-8.505C2 22.893 2.9 22 4.007 22z" stroke-width="2" fill="#FFF"/><use mask="url(#f)" stroke-width="4" fill="#FFF" xlink:href="#c"/><path d="M19 4l1.5-1.5M31 12l1.5-1.5M8 5L6.5 3.5M3.5 10h2M3.5 17h2M3.5 17h2M23.5 17h2M33.5 18h2M20.5 9.5l2-1M13 8.5v1M10 16.5v1M18 13.5v1M9.5 28h19" stroke-width="2" stroke-linecap="round"/></g></svg>