<svg width="62" height="83" viewBox="0 0 62 83" xmlns="http://www.w3.org/2000/svg" xmlns:xlink="http://www.w3.org/1999/xlink"><title>plant2</title><defs><path id="a" d="M18 47h28l-4 36H22z"/><mask id="d" x="0" y="0" width="28" height="36" fill="#fff"><use xlink:href="#a"/></mask><path d="M35.395 10.61c-1.95-7.795-9.745-7.795-14.54-5.957-.403-1.19-2.613-5.612-10.173-4.135-7.56 1.477-9.72 9.72-9.72 12.96S2.04 25.36 10.68 34c2.068-2.085 3.735-2.822 6.682-2.822 0 0 6.986-1.726 11.534-4.325 3.74-2.137 8.446-8.446 6.497-16.242z" id="b"/><mask id="e" x="0" y="0" width="34.889" height="33.78" fill="#fff"><use xlink:href="#b"/></mask><path d="M50.5 11.5S44.5 9 42 13s-.5 7.5 3 10.5 5 4.5 5 5S59.5 26 61 20s-1-9.5-4.5-10-6 1.5-6 1.5z" id="c"/><mask id="f" x="0" y="0" width="20.561" height="18.634" fill="#fff"><use xlink:href="#c"/></mask></defs><g stroke="#D1D3D6" fill="none" fill-rule="evenodd"><use mask="url(#d)" stroke-width="4" fill="#FFF" xlink:href="#a"/><path d="M50.5 12s-9.5-.5-13 36M19 6.5s8 7.5 8.5 42M31.5 23.5s2 12.5 1 24.5" stroke-width="2"/><path d="M30.076 22.99s3.368-2.75 5.634.918C37.977 27.578 30.8 34 30.8 34S24 30.79 24 26.66c0-4.128 6.076-3.67 6.076-3.67z" stroke-width="2" fill="#FFF"/><use mask="url(#e)" stroke-width="4" fill="#FFF" xlink:href="#b"/><path d="M19.802 6.713S8.5 2.5 2 13.5M19.153 7.363S9.5 11 7 27.5M20 7s10-1 13 13.5M19 6.5s6 3 2 22.5" stroke-width="2" fill="#FFF"/><use mask="url(#f)" stroke-width="4" fill="#FFF" xlink:href="#c"/><path d="M51 12.5s7.5 1 8 9M50.5 13S44 14 46 23M51 13s3.5 5.5 0 14" stroke-width="2" fill="#FFF"/></g></svg>