<svg width="106" height="315" viewBox="0 0 106 315" xmlns="http://www.w3.org/2000/svg" xmlns:xlink="http://www.w3.org/1999/xlink"><title>po</title><defs><rect id="a" x="23" y="151" width="65" height="49" rx="7"/><mask id="f" x="0" y="0" width="65" height="49" fill="#fff"><use xlink:href="#a"/></mask><path d="M48 107h13v11.194S57.738 120 54.5 120s-6.5-1.806-6.5-1.806V107z" id="b"/><mask id="g" x="0" y="0" width="13" height="13" fill="#fff"><use xlink:href="#b"/></mask><path d="M58 9.196V46c0 9.39-7.602 17-17 17H26c-9.39 0-17-7.604-17-17V10.644l16.044-5.358L39.498.812 58 9.196z" id="c"/><mask id="h" x="0" y="0" width="49" height="62.188" fill="#fff"><use xlink:href="#c"/></mask><rect id="d" x="26" y="196" width="59" height="10" rx="4"/><mask id="i" x="0" y="0" width="59" height="10" fill="#fff"><use xlink:href="#d"/></mask><rect id="e" x="48.889" y="203.552" width="8" height="12" rx="4"/><mask id="j" x="0" y="0" width="8" height="12" fill="#fff"><use xlink:href="#e"/></mask></defs><g transform="translate(-2 -19)" fill="none" fill-rule="evenodd"><use stroke="#1A2530" mask="url(#f)" stroke-width="4" fill="#FFF" xlink:href="#a"/><path d="M81.995 183.878l12.795.554c7.73.334 12.72-5.538 11.164-13.116l-8.628-42.005c-1.56-7.587-9.086-13.72-16.818-13.72H31.936c-7.734 0-15.216 6.15-16.717 13.738l-7.413 37.487c-1.5 7.596 3.545 14.007 11.267 14.34l7.338.32 25.777-6.15 29.805 8.553z" stroke="#1A2530" stroke-width="2" fill="#FFF"/><use stroke="#1A2530" mask="url(#g)" stroke-width="4" fill="#FFF" xlink:href="#b"/><path fill="#D1D3D6" d="M56.138 160.863l-8.738 4.594 1.67-9.73-7.07-6.89 9.77-1.42 4.368-8.853 4.37 8.853 9.768 1.42-7.07 6.89 1.67 9.73"/><g stroke="#1A2530"><g stroke-width="2" fill="#FFF" stroke-linecap="round"><path d="M58.553 30.914s-18.16 1.04-26.514 9.626c-7.234 7.434-5.688 11.252-5.747 16.568-.2 17.966.52 12.58.52 12.58L83.5 71s6-28.5-8-33-16.947-7.086-16.947-7.086z"/><path d="M66.97 36.067s4.646-6.613 1.52-15.783C59.982 34.582 48 38 48 38" stroke-linejoin="round"/><path d="M66 36.5s4.796-1.543 9.5-6c.183 7.375-2 9.5-5 12" stroke-linejoin="round"/></g><g transform="rotate(1 -2640.39 1260.636)"><g stroke-width="2"><path d="M56.48 24.166s9.428-1.756 9.428 6.278c0 8.035-6.976 9.388-9.427 10.133" fill="#FFF"/><path d="M61.695 30.25s-1.862 3.83-3.627 3.082" stroke-linecap="round"/><g><path d="M9.52 24.166S.09 22.41.09 30.444c0 8.035 6.976 9.388 9.427 10.133" fill="#FFF"/><path d="M4.305 30.25s1.862 3.83 3.627 3.082" stroke-linecap="round"/></g></g><use mask="url(#h)" stroke-width="4" fill="#FFF" xlink:href="#c"/><g transform="translate(16.07 20)" stroke-width="2"><ellipse cx="6.853" cy="7.879" rx="1" ry="1"/><ellipse cx="27.853" cy="7.879" rx="1" ry="1"/><path d="M10.962 1.89S3.658 2.536.358 3.483M23.337 3.375s7.474-1.667 10.04-.833" stroke-linecap="round"/><path d="M12.217 22.412s.858 7.155 8.187 6.66c7.328-.496 5.81-9.37 5.81-9.37l-13.997 2.71z"/></g></g></g><path d="M73.75 159.8s3.4-4.077 7.237-4.077c3.836 0 9.59 4.14 9.59 4.14l1.548 6.062-7.197 3.94-10.64-4.553" stroke="#1A2530" stroke-width="2" fill="#FFF"/><path d="M26.875 181.12c11.042.79 48.092-11.785 48.092-11.785l-1.373-8.482-46.72 2.135" stroke="#1A2530" stroke-width="2" fill="#FFF"/><path d="M82.458 183.8c-13.352 0-46.19-16.22-46.19-16.22l6.492-9.55s27.884 7.315 37.2 9.55" stroke="#1A2530" stroke-width="2" fill="#FFF"/><use stroke="#1A2530" mask="url(#i)" stroke-width="4" fill="#FFF" xlink:href="#d"/><path d="M45.093 301.15c2.582-15.015 6.257-36.675 7.492-45.397.693-4.898 2.583-15.844 3.894-23.313-3.974-6.58-11.037-5.718-16.635-3.576-5.324 8.243-10.29 17.01-11.834 23.064 0 10.34 10.823 35.52 17.083 49.22zM42.87 314l-.48 2.764c-.38 2.183 1.102 4.028 3.31 4.134l14.945.713c2.214.107 4.313-1.575 4.705-3.754 0 0 8.565-47.642 11.326-62.103 1.995-10.45 8.2-22.825 9.93-32.712.664-3.793-.655-16.06-.655-16.06-.204-2.194-2.175-3.98-4.386-3.98H31.156c-2.21 0-5.02 1.465-6.276 3.273 0 0-19.36 27.058-21.88 41.125 0 22.758 22.268 63.065 22.268 63.065C26.3 312.42 28.94 314 31.143 314H42.87zM42.18 156.68s-1.122-5.513-3.532-5.513-12.12 2.965-12.12 2.965-1.847 13.288 2.9 10.63c4.75-2.66 6.513-.187 7.867-.187" stroke="#1A2530" stroke-width="2" fill="#FFF"/><path d="M32.73 138.564L29.5 153.5M82.53 140.62l2.54 14.845" stroke="#1A2530" stroke-width="2"/><path d="M49.5 161.5l-6 9" stroke="#1A2530" stroke-width="2" stroke-linecap="square"/><path d="M42.41 114.24s-.158 10.673 12.392 10.673c12.55 0 11.793-10 11.793-10" stroke="#1A2530" stroke-width="2"/><path stroke="#1A2530" stroke-width="2" fill="#FFF" d="M48.135 319.67l-1.163 3.504-18.41 1.76-.288 7.512H60.58V319.67z"/><path d="M33 313l.418 4.358-7.75 5.818-14.073 3.49-3.646 5.8h33.57s6.33-3.015 7.714-4.996c1.188-1.7 0-6.048 0-6.048l-4.79-5.254V313H33z" stroke="#1A2530" stroke-width="2" fill="#FFF"/><path stroke="#1A2530" stroke-width="2" d="M19 325l15.5-.5 5.5-4 7.5-.5"/><use stroke="#1A2530" mask="url(#j)" stroke-width="4" transform="rotate(9 52.89 209.552)" xlink:href="#e"/><path d="M31.358 207.187S11.833 232.74 9.268 247.19C6.7 261.644 23.383 296.506 29.5 304.5M80.943 208.543s1.176 7.896 0 12.732c-1.175 4.836-12.232 36.623-13.602 47.593-1.37 10.97-7.797 49.585-7.797 49.585" stroke="#1A2530" stroke-width="2" stroke-dasharray="3"/><path d="M23 307c8-2 14.174-6.404 22-7.5 1.59 3.41 4.626 10.81 4.626 10.81.843 2.04-.257 3.69-2.463 3.69h-16.02c-2.203 0-4.923-1.527-6.067-3.418 0 0-1.17-1.858-2.076-3.582z" stroke="#1A2530" stroke-width="2" fill="#FFF"/></g></svg>