<svg width="40" height="47" viewBox="0 0 40 47" xmlns="http://www.w3.org/2000/svg" xmlns:xlink="http://www.w3.org/1999/xlink"><title>trash</title><defs><path d="M1.052 8.942C.787 7.87 1.464 7 2.572 7h36.86c1.104 0 1.785.863 1.52 1.942l-1.265 5.116C39.423 15.13 38.307 16 37.197 16H4.806c-1.11 0-2.223-.863-2.49-1.942L1.053 8.942z" id="a"/><mask id="c" x="0" y="0" width="40.014" height="9" fill="#fff"><use xlink:href="#a"/></mask><path d="M2.58 15.954C2.337 14.874 3.043 14 4.144 14H37.39c1.107 0 1.808.873 1.566 1.954l-6.29 28.092c-.24 1.08-1.335 1.954-2.43 1.954H11.3c-1.1 0-2.19-.873-2.432-1.954l-6.29-28.092z" id="b"/><mask id="d" x="0" y="0" width="36.472" height="32" fill="#fff"><use xlink:href="#b"/></mask></defs><g transform="translate(-1 1)" stroke="#D1D3D6" fill="#FFF" fill-rule="evenodd"><path stroke-width="2" d="M25.86 7.857l1.02-3.34 4.05-2.07 4.295.092.866 5.53z"/><path stroke-width="2" d="M29.29 2.974L24.717.718 18.105.162l-.403 3.215 3.494 4.235 5.87.617z"/><path stroke-width="2" d="M17.46 3.72l-4.697-.65L10.54.908 6.58 3.442 4.168 4.828l-.185 3.276 12.047.185 6.52.615z"/><use mask="url(#c)" stroke-width="4" xlink:href="#a"/><use mask="url(#d)" stroke-width="4" xlink:href="#b"/></g></svg>